<svg id="Layer_1" enable-background="new 0 0 512 512" height="512" viewBox="0 0 512 512" width="512" xmlns="http://www.w3.org/2000/svg"><path d="m466.948 217.563c2.457 1.444 4.836 2.887 7.166 4.327v-48.111c19.624-6.32 33.865-24.747 33.865-46.445v-67.73c0-26.901-21.886-48.787-48.787-48.787s-48.787 21.886-48.787 48.787v67.731c0 21.698 14.242 40.125 33.865 46.445v31.517c8.278 4.117 15.847 8.253 22.678 12.266z"/><path d="m67.731 205.296v-31.517c19.624-6.32 33.865-24.747 33.865-46.445v-67.73c0-26.901-21.886-48.787-48.787-48.787s-48.788 21.885-48.788 48.787v67.731c0 21.698 14.242 40.125 33.865 46.445v48.111c2.33-1.44 4.709-2.884 7.166-4.327 6.831-4.014 14.4-8.15 22.679-12.268z"/><path d="m241.078 162.788v-27.21c0-8.241 6.681-14.922 14.922-14.922s14.922 6.681 14.922 14.922v27.21c24.305.78 46.906 3.415 67.731 7.339v-56.763c2.416 1.235 5.036 1.84 7.641 1.84 5.127 0 10.19-2.33 13.503-6.746 5.588-7.45 4.078-18.019-3.372-23.607l-90.308-67.731c-5.995-4.497-14.24-4.497-20.235 0l-90.308 67.731c-7.45 5.588-8.96 16.157-3.373 23.607 4.996 6.662 13.972 8.557 21.145 4.89v56.779c20.826-3.923 43.427-6.559 67.732-7.339z"/><path d="m256 301.827c55.697-32.822 118.175-54.779 184.325-64.981-40.092-21.488-102.17-44.47-184.325-44.47-79.827 0-141.225 21.412-184.216 44.487 66.11 10.209 128.55 32.16 184.216 64.964z"/><path d="m512 260.317c-82.447 2.329-160.692 23.897-227.092 59.952 32.743 22.603 61.63 48.72 86.033 77.849 26.604 31.758 47.277 66.389 61.585 103.065h64.552c8.241 0 14.922-6.681 14.922-14.922z"/><path d="m0 332.286c50.324 2.858 97.844 20.173 138.236 50.519 39.931 30 70.395 71.722 86.671 118.378h175.365c-60.355-139.107-220.326-235.783-400.272-240.866z"/><path d="m193.052 501.184c-31.681-78.521-107.394-133.247-193.052-138.983v124.06c0 8.241 6.681 14.922 14.922 14.922h178.13z"/></svg>